<?xml version="1.0" standalone="no"?>
<!DOCTYPE svg PUBLIC "-//W3C//DTD SVG 20010904//EN"
 "http://www.w3.org/TR/2001/REC-SVG-20010904/DTD/svg10.dtd">
<svg version="1.0" xmlns="http://www.w3.org/2000/svg"
 width="500.000000pt" height="500.000000pt" viewBox="0 0 500.000000 500.000000"
 preserveAspectRatio="xMidYMid meet">
<metadata>
Created by potrace 1.14, written by Peter Selinger 2001-2017
</metadata>
<g transform="translate(0.000000,500.000000) scale(0.100000,-0.100000)"
fill="#000000" stroke="none">
<path d="M0 2500 l0 -2500 2500 0 2500 0 0 2500 0 2500 -2500 0 -2500 0 0
-2500z m572 510 c48 -14 97 -55 114 -97 29 -69 12 -165 -37 -210 -36 -32 -75
-44 -171 -50 l-88 -6 0 -108 0 -109 -55 0 -55 0 0 295 0 295 128 0 c70 0 144
-5 164 -10z m334 -145 c17 -82 37 -176 44 -207 6 -32 15 -58 19 -58 5 0 32 95
61 210 l53 210 49 0 c26 0 48 -2 48 -5 0 -7 99 -388 106 -405 10 -27 20 7 63
210 23 107 43 196 45 198 2 2 26 2 53 0 l49 -3 -66 -290 -66 -290 -64 0 -63 0
-50 185 c-27 102 -51 187 -53 189 -10 11 -22 -23 -65 -192 l-46 -182 -63 0
-63 0 -38 165 c-21 91 -51 223 -67 293 l-30 128 56 -3 55 -3 33 -150z m812 88
c17 -81 82 -211 197 -397 120 -194 148 -259 147 -342 -4 -214 -214 -385 -424
-344 -175 34 -300 180 -301 351 0 83 23 136 153 344 107 171 172 304 191 388
8 31 16 57 19 57 3 0 11 -26 18 -57z m1180 -747 c-2 -13 -10 -21 -23 -21 -23
0 -33 34 -14 45 20 13 40 -1 37 -24z m-711 -31 c112 -314 112 -315 87 -315
-18 0 -26 9 -39 50 l-17 51 -76 -3 -76 -3 -15 -47 c-12 -39 -19 -48 -37 -48
-22 0 -22 4 37 171 33 95 62 176 65 181 3 5 17 8 32 6 19 -2 28 -12 39 -43z
m1103 -15 c0 -28 2 -30 40 -30 33 0 40 -3 40 -20 0 -17 -7 -20 -40 -20 l-40 0
0 -95 c0 -90 1 -95 23 -100 12 -2 31 -4 42 -2 31 3 24 -26 -8 -34 -31 -8 -77
4 -89 24 -4 7 -8 56 -8 110 0 97 0 97 -25 97 -18 0 -25 5 -25 20 0 15 7 20 25
20 21 0 25 5 25 30 0 23 4 30 20 30 16 0 20 -7 20 -30z m790 0 c0 -28 2 -30
40 -30 33 0 40 -3 40 -20 0 -17 -7 -20 -40 -20 l-40 0 0 -95 c0 -90 1 -95 23
-100 12 -2 31 -4 42 -2 31 3 24 -26 -8 -34 -31 -8 -77 4 -89 24 -4 7 -8 56 -8
110 0 97 0 97 -25 97 -18 0 -25 5 -25 20 0 15 7 20 25 20 21 0 25 5 25 30 0
23 4 30 20 30 16 0 20 -7 20 -30z m-1579 -40 c20 -11 25 -35 9 -45 -5 -3 -20
1 -32 9 -43 30 -98 15 -98 -26 0 -20 21 -31 88 -48 34 -9 46 -18 56 -41 15
-35 10 -73 -10 -90 -22 -18 -83 -28 -116 -18 -43 12 -71 39 -58 54 9 10 19 8
49 -8 50 -28 94 -16 99 25 4 30 -11 41 -68 52 -75 14 -105 85 -54 125 29 23
101 29 135 11z m253 -9 c23 -25 0 -46 -28 -25 -26 18 -70 18 -86 -1 -23 -27
-7 -49 49 -67 69 -22 91 -43 91 -84 0 -76 -110 -105 -185 -50 -16 12 -17 16
-6 30 12 14 16 14 38 -4 47 -37 118 -18 111 30 -2 20 -14 27 -63 42 -33 9 -65
25 -72 35 -20 26 -15 70 9 93 30 27 117 28 142 1z m136 -116 c0 -128 -1 -135
-20 -135 -19 0 -20 7 -20 135 0 128 1 135 20 135 19 0 20 -7 20 -135z m244
116 c23 -25 0 -46 -28 -25 -26 18 -70 18 -86 -1 -23 -27 -7 -49 49 -67 69 -22
91 -43 91 -84 0 -76 -110 -105 -185 -50 -16 12 -17 16 -6 30 12 14 16 14 38
-4 47 -37 118 -18 111 30 -2 20 -14 27 -63 42 -33 9 -65 25 -72 35 -20 26 -15
70 9 93 30 27 117 28 142 1z m466 -1 c17 -17 20 -33 20 -116 0 -87 2 -96 20
-101 11 -3 20 -12 20 -19 0 -18 -44 -18 -59 0 -9 11 -18 10 -51 -6 -34 -17
-44 -18 -75 -8 -40 13 -55 35 -55 79 0 36 36 68 89 77 50 9 71 22 71 43 0 44
-70 53 -112 14 -15 -13 -21 -14 -31 -4 -9 10 -6 17 16 37 37 32 117 34 147 4z
m150 0 c0 -11 2 -20 5 -20 3 0 14 9 25 20 22 22 87 27 120 10 28 -15 40 -65
40 -166 0 -85 -2 -94 -19 -94 -17 0 -19 10 -23 106 -4 120 -16 140 -73 130
-53 -10 -65 -37 -65 -142 0 -87 -1 -94 -20 -94 -19 0 -20 7 -20 135 0 113 2
135 15 135 8 0 15 -9 15 -20z"/>
<path d="M390 2835 l0 -95 66 0 c99 0 133 25 134 98 0 32 -6 49 -25 67 -21 22
-33 25 -100 25 l-75 0 0 -95z"/>
<path d="M1961 2223 c-29 -118 -113 -210 -228 -249 -36 -12 -61 -24 -56 -27
26 -16 86 -17 138 -2 112 32 197 157 182 268 -8 61 -23 66 -36 10z"/>
<path d="M2115 2093 c-15 -43 -29 -84 -32 -90 -3 -10 11 -13 56 -13 44 0 61 4
61 13 0 14 -47 157 -54 164 -2 2 -16 -31 -31 -74z"/>
<path d="M3525 1987 c-54 -16 -65 -24 -65 -51 0 -31 18 -46 56 -46 23 0 38 7
48 22 16 23 22 89 9 87 -5 -1 -26 -6 -48 -12z"/>
</g>
</svg>
